<svg width="2000" height="1400" viewBox="0 0 2000 1400" fill="none" xmlns="http://www.w3.org/2000/svg">
<g clip-path="url(#clip0_131_2)">
<mask id="mask0_131_2" style="mask-type:luminance" maskUnits="userSpaceOnUse" x="488" y="-634" width="2001" height="1401">
<path d="M2488.2 -633.178H488.198V766.822H2488.2V-633.178Z" fill="url(#paint0_radial_131_2)"/>
</mask>
<g mask="url(#mask0_131_2)">
<path d="M516.129 0H451.613V64.5161H516.129V0Z" stroke="#9FE3CC" stroke-width="2"/>
<path d="M580.645 0H516.129V64.5161H580.645V0Z" fill="#9FE3CC" fill-opacity="0.478431" stroke="#9FE3CC" stroke-width="2"/>
<path d="M645.162 0H580.646V64.5161H645.162V0Z" stroke="#9FE3CC" stroke-width="2"/>
<path d="M709.677 0H645.161V64.5161H709.677V0Z" fill="#9FE3CC" fill-opacity="0.580392" stroke="#9FE3CC" stroke-width="2"/>
<path d="M774.194 0H709.678V64.5161H774.194V0Z" fill="#9FE3CC" fill-opacity="0.494118" stroke="#9FE3CC" stroke-width="2"/>
<path d="M838.709 0H774.193V64.5161H838.709V0Z" fill="#9FE3CC" fill-opacity="0.184314" stroke="#9FE3CC" stroke-width="2"/>
<path d="M903.226 0H838.71V64.5161H903.226V0Z" fill="#9FE3CC" fill-opacity="0.337255" stroke="#9FE3CC" stroke-width="2"/>
<path d="M967.742 0H903.226V64.5161H967.742V0Z" stroke="#9FE3CC" stroke-width="2"/>
<path d="M1032.26 0H967.742V64.5161H1032.26V0Z" stroke="#9FE3CC" stroke-width="2"/>
<path d="M1096.77 0H1032.26V64.5161H1096.77V0Z" stroke="#9FE3CC" stroke-width="2"/>
<path d="M1161.29 0H1096.77V64.5161H1161.29V0Z" stroke="#9FE3CC" stroke-width="2"/>
<path d="M1225.81 0H1161.29V64.5161H1225.81V0Z" fill="#9FE3CC" fill-opacity="0.317647" stroke="#9FE3CC" stroke-width="2"/>
<path d="M1290.32 0H1225.81V64.5161H1290.32V0Z" stroke="#9FE3CC" stroke-width="2"/>
<path d="M1354.84 0H1290.32V64.5161H1354.84V0Z" stroke="#9FE3CC" stroke-width="2"/>
<path d="M1419.35 0H1354.84V64.5161H1419.35V0Z" stroke="#9FE3CC" stroke-width="2"/>
<path d="M1483.87 0H1419.35V64.5161H1483.87V0Z" stroke="#9FE3CC" stroke-width="2"/>
<path d="M1548.39 0H1483.87V64.5161H1548.39V0Z" stroke="#9FE3CC" stroke-width="2"/>
<path d="M1612.9 0H1548.39V64.5161H1612.9V0Z" stroke="#9FE3CC" stroke-width="2"/>
<path d="M1677.42 0H1612.9V64.5161H1677.42V0Z" stroke="#9FE3CC" stroke-width="2"/>
<path d="M1741.94 0H1677.42V64.5161H1741.94V0Z" fill="#9FE3CC" fill-opacity="0.478431" stroke="#9FE3CC" stroke-width="2"/>
<path d="M1806.45 0H1741.94V64.5161H1806.45V0Z" fill="#9FE3CC" fill-opacity="0.588235" stroke="#9FE3CC" stroke-width="2"/>
<path d="M1870.97 0H1806.45V64.5161H1870.97V0Z" fill="#9FE3CC" fill-opacity="0.694118" stroke="#9FE3CC" stroke-width="2"/>
<path d="M1935.48 0H1870.97V64.5161H1935.48V0Z" stroke="#9FE3CC" stroke-width="2"/>
<path d="M2000 0H1935.48V64.5161H2000V0Z" fill="#9FE3CC" fill-opacity="0.647059" stroke="#9FE3CC" stroke-width="2"/>
<path d="M516.129 64.5166H451.613V129.033H516.129V64.5166Z" stroke="#9FE3CC" stroke-width="2"/>
<path d="M580.645 64.5166H516.129V129.033H580.645V64.5166Z" stroke="#9FE3CC" stroke-width="2"/>
<path d="M645.162 64.5166H580.646V129.033H645.162V64.5166Z" fill="#9FE3CC" fill-opacity="0.121569" stroke="#9FE3CC" stroke-width="2"/>
<path d="M709.677 64.5166H645.161V129.033H709.677V64.5166Z" stroke="#9FE3CC" stroke-width="2"/>
<path d="M774.194 64.5166H709.678V129.033H774.194V64.5166Z" fill="#9FE3CC" fill-opacity="0.827451" stroke="#9FE3CC" stroke-width="2"/>
<path d="M838.709 64.5166H774.193V129.033H838.709V64.5166Z" stroke="#9FE3CC" stroke-width="2"/>
<path d="M903.226 64.5166H838.71V129.033H903.226V64.5166Z" stroke="#9FE3CC" stroke-width="2"/>
<path d="M967.742 64.5166H903.226V129.033H967.742V64.5166Z" stroke="#9FE3CC" stroke-width="2"/>
<path d="M1032.26 64.5166H967.742V129.033H1032.26V64.5166Z" stroke="#9FE3CC" stroke-width="2"/>
<path d="M1096.77 64.5166H1032.26V129.033H1096.77V64.5166Z" stroke="#9FE3CC" stroke-width="2"/>
<path d="M1161.29 64.5166H1096.77V129.033H1161.29V64.5166Z" stroke="#9FE3CC" stroke-width="2"/>
<path d="M1225.81 64.5166H1161.29V129.033H1225.81V64.5166Z" fill="#9FE3CC" fill-opacity="0.180392" stroke="#9FE3CC" stroke-width="2"/>
<path d="M1290.32 64.5166H1225.81V129.033H1290.32V64.5166Z" stroke="#9FE3CC" stroke-width="2"/>
<path d="M1354.84 64.5166H1290.32V129.033H1354.84V64.5166Z" stroke="#9FE3CC" stroke-width="2"/>
<path d="M1419.35 64.5166H1354.84V129.033H1419.35V64.5166Z" stroke="#9FE3CC" stroke-width="2"/>
<path d="M1483.87 64.5166H1419.35V129.033H1483.87V64.5166Z" stroke="#9FE3CC" stroke-width="2"/>
<path d="M1548.39 64.5166H1483.87V129.033H1548.39V64.5166Z" fill="#9FE3CC" fill-opacity="0.388235" stroke="#9FE3CC" stroke-width="2"/>
<path d="M1612.9 64.5166H1548.39V129.033H1612.9V64.5166Z" stroke="#9FE3CC" stroke-width="2"/>
<path d="M1677.42 64.5166H1612.9V129.033H1677.42V64.5166Z" stroke="#9FE3CC" stroke-width="2"/>
<path d="M1741.94 64.5166H1677.42V129.033H1741.94V64.5166Z" stroke="#9FE3CC" stroke-width="2"/>
<path d="M1806.45 64.5166H1741.94V129.033H1806.45V64.5166Z" fill="#9FE3CC" fill-opacity="0.4" stroke="#9FE3CC" stroke-width="2"/>
<path d="M1870.97 64.5166H1806.45V129.033H1870.97V64.5166Z" fill="#9FE3CC" fill-opacity="0.588235" stroke="#9FE3CC" stroke-width="2"/>
<path d="M1935.48 64.5166H1870.97V129.033H1935.48V64.5166Z" stroke="#9FE3CC" stroke-width="2"/>
<path d="M2000 64.5166H1935.48V129.033H2000V64.5166Z" fill="#9FE3CC" fill-opacity="0.937255" stroke="#9FE3CC" stroke-width="2"/>
<path d="M516.129 129.032H451.613V193.548H516.129V129.032Z" fill="#9FE3CC" fill-opacity="0.972549" stroke="#9FE3CC" stroke-width="2"/>
<path d="M580.645 129.032H516.129V193.548H580.645V129.032Z" fill="#9FE3CC" fill-opacity="0.168627" stroke="#9FE3CC" stroke-width="2"/>
<path d="M645.162 129.032H580.646V193.548H645.162V129.032Z" fill="#9FE3CC" fill-opacity="0.956863" stroke="#9FE3CC" stroke-width="2"/>
<path d="M709.677 129.032H645.161V193.548H709.677V129.032Z" fill="#9FE3CC" fill-opacity="0.2" stroke="#9FE3CC" stroke-width="2"/>
<path d="M774.194 129.032H709.678V193.548H774.194V129.032Z" stroke="#9FE3CC" stroke-width="2"/>
<path d="M838.709 129.032H774.193V193.548H838.709V129.032Z" stroke="#9FE3CC" stroke-width="2"/>
<path d="M903.226 129.032H838.71V193.548H903.226V129.032Z" stroke="#9FE3CC" stroke-width="2"/>
<path d="M967.742 129.032H903.226V193.548H967.742V129.032Z" stroke="#9FE3CC" stroke-width="2"/>
<path d="M1032.26 129.032H967.742V193.548H1032.26V129.032Z" stroke="#9FE3CC" stroke-width="2"/>
<path d="M1096.77 129.032H1032.26V193.548H1096.77V129.032Z" stroke="#9FE3CC" stroke-width="2"/>
<path d="M1161.29 129.032H1096.77V193.548H1161.29V129.032Z" stroke="#9FE3CC" stroke-width="2"/>
<path d="M1225.81 129.032H1161.29V193.548H1225.81V129.032Z" stroke="#9FE3CC" stroke-width="2"/>
<path d="M1290.32 129.032H1225.81V193.548H1290.32V129.032Z" stroke="#9FE3CC" stroke-width="2"/>
<path d="M1354.84 129.032H1290.32V193.548H1354.84V129.032Z" stroke="#9FE3CC" stroke-width="2"/>
<path d="M1419.35 129.032H1354.84V193.548H1419.35V129.032Z" fill="#9FE3CC" fill-opacity="0.815686" stroke="#9FE3CC" stroke-width="2"/>
<path d="M1483.87 129.032H1419.35V193.548H1483.87V129.032Z" stroke="#9FE3CC" stroke-width="2"/>
<path d="M1548.39 129.032H1483.87V193.548H1548.39V129.032Z" stroke="#9FE3CC" stroke-width="2"/>
<path d="M1612.9 129.032H1548.39V193.548H1612.9V129.032Z" stroke="#9FE3CC" stroke-width="2"/>
<path d="M1677.42 129.032H1612.9V193.548H1677.42V129.032Z" fill="#9FE3CC" fill-opacity="0.952941" stroke="#9FE3CC" stroke-width="2"/>
<path d="M1741.94 129.032H1677.42V193.548H1741.94V129.032Z" fill="#9FE3CC" fill-opacity="0.0941176" stroke="#9FE3CC" stroke-width="2"/>
<path d="M1806.45 129.032H1741.94V193.548H1806.45V129.032Z" stroke="#9FE3CC" stroke-width="2"/>
<path d="M1870.97 129.032H1806.45V193.548H1870.97V129.032Z" stroke="#9FE3CC" stroke-width="2"/>
<path d="M1935.48 129.032H1870.97V193.548H1935.48V129.032Z" stroke="#9FE3CC" stroke-width="2"/>
<path d="M2000 129.032H1935.48V193.548H2000V129.032Z" stroke="#9FE3CC" stroke-width="2"/>
<path d="M516.129 193.549H451.613V258.065H516.129V193.549Z" stroke="#9FE3CC" stroke-width="2"/>
<path d="M580.645 193.549H516.129V258.065H580.645V193.549Z" stroke="#9FE3CC" stroke-width="2"/>
<path d="M645.162 193.549H580.646V258.065H645.162V193.549Z" stroke="#9FE3CC" stroke-width="2"/>
<path d="M709.677 193.549H645.161V258.065H709.677V193.549Z" fill="#9FE3CC" fill-opacity="0.847059" stroke="#9FE3CC" stroke-width="2"/>
<path d="M774.194 193.549H709.678V258.065H774.194V193.549Z" stroke="#9FE3CC" stroke-width="2"/>
<path d="M838.709 193.549H774.193V258.065H838.709V193.549Z" stroke="#9FE3CC" stroke-width="2"/>
<path d="M903.226 193.549H838.71V258.065H903.226V193.549Z" stroke="#9FE3CC" stroke-width="2"/>
<path d="M967.742 193.549H903.226V258.065H967.742V193.549Z" fill="#9FE3CC" fill-opacity="0.243137" stroke="#9FE3CC" stroke-width="2"/>
<path d="M1032.26 193.549H967.742V258.065H1032.26V193.549Z" stroke="#9FE3CC" stroke-width="2"/>
<path d="M1096.77 193.549H1032.26V258.065H1096.77V193.549Z" stroke="#9FE3CC" stroke-width="2"/>
<path d="M1161.29 193.549H1096.77V258.065H1161.29V193.549Z" fill="#9FE3CC" fill-opacity="0.345098" stroke="#9FE3CC" stroke-width="2"/>
<path d="M1225.81 193.549H1161.29V258.065H1225.81V193.549Z" stroke="#9FE3CC" stroke-width="2"/>
<path d="M1290.32 193.549H1225.81V258.065H1290.32V193.549Z" stroke="#9FE3CC" stroke-width="2"/>
<path d="M1354.84 193.549H1290.32V258.065H1354.84V193.549Z" stroke="#9FE3CC" stroke-width="2"/>
<path d="M1419.35 193.549H1354.84V258.065H1419.35V193.549Z" stroke="#9FE3CC" stroke-width="2"/>
<path d="M1483.87 193.549H1419.35V258.065H1483.87V193.549Z" stroke="#9FE3CC" stroke-width="2"/>
<path d="M1548.39 193.549H1483.87V258.065H1548.39V193.549Z" stroke="#9FE3CC" stroke-width="2"/>
<path d="M1612.9 193.549H1548.39V258.065H1612.9V193.549Z" stroke="#9FE3CC" stroke-width="2"/>
<path d="M1677.42 193.549H1612.9V258.065H1677.42V193.549Z" fill="#9FE3CC" fill-opacity="0.305882" stroke="#9FE3CC" stroke-width="2"/>
<path d="M1741.94 193.549H1677.42V258.065H1741.94V193.549Z" stroke="#9FE3CC" stroke-width="2"/>
<path d="M1806.45 193.549H1741.94V258.065H1806.45V193.549Z" stroke="#9FE3CC" stroke-width="2"/>
<path d="M1870.97 193.549H1806.45V258.065H1870.97V193.549Z" stroke="#9FE3CC" stroke-width="2"/>
<path d="M1935.48 193.549H1870.97V258.065H1935.48V193.549Z" stroke="#9FE3CC" stroke-width="2"/>
<path d="M2000 193.549H1935.48V258.065H2000V193.549Z" fill="#9FE3CC" fill-opacity="0.0980392" stroke="#9FE3CC" stroke-width="2"/>
<path d="M516.129 258.064H451.613V322.581H516.129V258.064Z" fill="#9FE3CC" fill-opacity="0.74902" stroke="#9FE3CC" stroke-width="2"/>
<path d="M580.645 258.064H516.129V322.581H580.645V258.064Z" fill="#9FE3CC" fill-opacity="0.0156863" stroke="#9FE3CC" stroke-width="2"/>
<path d="M645.162 258.064H580.646V322.581H645.162V258.064Z" stroke="#9FE3CC" stroke-width="2"/>
<path d="M709.677 258.064H645.161V322.581H709.677V258.064Z" stroke="#9FE3CC" stroke-width="2"/>
<path d="M774.194 258.064H709.678V322.581H774.194V258.064Z" stroke="#9FE3CC" stroke-width="2"/>
<path d="M838.709 258.064H774.193V322.581H838.709V258.064Z" stroke="#9FE3CC" stroke-width="2"/>
<path d="M903.226 258.064H838.71V322.581H903.226V258.064Z" stroke="#9FE3CC" stroke-width="2"/>
<path d="M967.742 258.064H903.226V322.581H967.742V258.064Z" stroke="#9FE3CC" stroke-width="2"/>
<path d="M1032.26 258.064H967.742V322.581H1032.26V258.064Z" stroke="#9FE3CC" stroke-width="2"/>
<path d="M1096.77 258.064H1032.26V322.581H1096.77V258.064Z" stroke="#9FE3CC" stroke-width="2"/>
<path d="M1161.29 258.064H1096.77V322.581H1161.29V258.064Z" stroke="#9FE3CC" stroke-width="2"/>
<path d="M1225.81 258.064H1161.29V322.581H1225.81V258.064Z" fill="#9FE3CC" fill-opacity="0.0117647" stroke="#9FE3CC" stroke-width="2"/>
<path d="M1290.32 258.064H1225.81V322.581H1290.32V258.064Z" fill="#9FE3CC" fill-opacity="0.431373" stroke="#9FE3CC" stroke-width="2"/>
<path d="M1354.84 258.064H1290.32V322.581H1354.84V258.064Z" stroke="#9FE3CC" stroke-width="2"/>
<path d="M1419.35 258.064H1354.84V322.581H1419.35V258.064Z" stroke="#9FE3CC" stroke-width="2"/>
<path d="M1483.87 258.064H1419.35V322.581H1483.87V258.064Z" fill="#9FE3CC" fill-opacity="0.835294" stroke="#9FE3CC" stroke-width="2"/>
<path d="M1548.39 258.064H1483.87V322.581H1548.39V258.064Z" fill="#9FE3CC" fill-opacity="0.278431" stroke="#9FE3CC" stroke-width="2"/>
<path d="M1612.9 258.064H1548.39V322.581H1612.9V258.064Z" fill="#9FE3CC" fill-opacity="0.2" stroke="#9FE3CC" stroke-width="2"/>
<path d="M1677.42 258.064H1612.9V322.581H1677.42V258.064Z" stroke="#9FE3CC" stroke-width="2"/>
<path d="M1741.94 258.064H1677.42V322.581H1741.94V258.064Z" fill="#9FE3CC" fill-opacity="0.254902" stroke="#9FE3CC" stroke-width="2"/>
<path d="M1806.45 258.064H1741.94V322.581H1806.45V258.064Z" fill="#9FE3CC" fill-opacity="0.0509804" stroke="#9FE3CC" stroke-width="2"/>
<path d="M1870.97 258.064H1806.45V322.581H1870.97V258.064Z" stroke="#9FE3CC" stroke-width="2"/>
<path d="M1935.48 258.064H1870.97V322.581H1935.48V258.064Z" fill="#9FE3CC" fill-opacity="0.470588" stroke="#9FE3CC" stroke-width="2"/>
<path d="M2000 258.064H1935.48V322.581H2000V258.064Z" stroke="#9FE3CC" stroke-width="2"/>
<path d="M516.129 322.581H451.613V387.097H516.129V322.581Z" stroke="#9FE3CC" stroke-width="2"/>
<path d="M580.645 322.581H516.129V387.097H580.645V322.581Z" fill="#9FE3CC" fill-opacity="0.109804" stroke="#9FE3CC" stroke-width="2"/>
<path d="M645.162 322.581H580.646V387.097H645.162V322.581Z" stroke="#9FE3CC" stroke-width="2"/>
<path d="M709.677 322.581H645.161V387.097H709.677V322.581Z" fill="#9FE3CC" fill-opacity="0.25098" stroke="#9FE3CC" stroke-width="2"/>
<path d="M774.194 322.581H709.678V387.097H774.194V322.581Z" stroke="#9FE3CC" stroke-width="2"/>
<path d="M838.709 322.581H774.193V387.097H838.709V322.581Z" stroke="#9FE3CC" stroke-width="2"/>
<path d="M903.226 322.581H838.71V387.097H903.226V322.581Z" stroke="#9FE3CC" stroke-width="2"/>
<path d="M967.742 322.581H903.226V387.097H967.742V322.581Z" stroke="#9FE3CC" stroke-width="2"/>
<path d="M1032.26 322.581H967.742V387.097H1032.26V322.581Z" stroke="#9FE3CC" stroke-width="2"/>
<path d="M1096.77 322.581H1032.26V387.097H1096.77V322.581Z" fill="#9FE3CC" fill-opacity="0.478431" stroke="#9FE3CC" stroke-width="2"/>
<path d="M1161.29 322.581H1096.77V387.097H1161.29V322.581Z" stroke="#9FE3CC" stroke-width="2"/>
<path d="M1225.81 322.581H1161.29V387.097H1225.81V322.581Z" fill="#9FE3CC" fill-opacity="0.662745" stroke="#9FE3CC" stroke-width="2"/>
<path d="M1290.32 322.581H1225.81V387.097H1290.32V322.581Z" stroke="#9FE3CC" stroke-width="2"/>
<path d="M1354.84 322.581H1290.32V387.097H1354.84V322.581Z" stroke="#9FE3CC" stroke-width="2"/>
<path d="M1419.35 322.581H1354.84V387.097H1419.35V322.581Z" stroke="#9FE3CC" stroke-width="2"/>
<path d="M1483.87 322.581H1419.35V387.097H1483.87V322.581Z" fill="#9FE3CC" fill-opacity="0.517647" stroke="#9FE3CC" stroke-width="2"/>
<path d="M1548.39 322.581H1483.87V387.097H1548.39V322.581Z" fill="#9FE3CC" fill-opacity="0.705882" stroke="#9FE3CC" stroke-width="2"/>
<path d="M1612.9 322.581H1548.39V387.097H1612.9V322.581Z" stroke="#9FE3CC" stroke-width="2"/>
<path d="M1677.42 322.581H1612.9V387.097H1677.42V322.581Z" stroke="#9FE3CC" stroke-width="2"/>
<path d="M1741.94 322.581H1677.42V387.097H1741.94V322.581Z" stroke="#9FE3CC" stroke-width="2"/>
<path d="M1806.45 322.581H1741.94V387.097H1806.45V322.581Z" stroke="#9FE3CC" stroke-width="2"/>
<path d="M1870.97 322.581H1806.45V387.097H1870.97V322.581Z" fill="#9FE3CC" fill-opacity="0.556863" stroke="#9FE3CC" stroke-width="2"/>
<path d="M1935.48 322.581H1870.97V387.097H1935.48V322.581Z" stroke="#9FE3CC" stroke-width="2"/>
<path d="M2000 322.581H1935.48V387.097H2000V322.581Z" fill="#9FE3CC" fill-opacity="0.819608" stroke="#9FE3CC" stroke-width="2"/>
<path d="M516.129 387.097H451.613V451.613H516.129V387.097Z" stroke="#9FE3CC" stroke-width="2"/>
<path d="M580.645 387.097H516.129V451.613H580.645V387.097Z" stroke="#9FE3CC" stroke-width="2"/>
<path d="M645.162 387.097H580.646V451.613H645.162V387.097Z" fill="#9FE3CC" fill-opacity="0.482353" stroke="#9FE3CC" stroke-width="2"/>
<path d="M709.677 387.097H645.161V451.613H709.677V387.097Z" stroke="#9FE3CC" stroke-width="2"/>
<path d="M774.194 387.097H709.678V451.613H774.194V387.097Z" stroke="#9FE3CC" stroke-width="2"/>
<path d="M838.709 387.097H774.193V451.613H838.709V387.097Z" fill="#9FE3CC" fill-opacity="0.407843" stroke="#9FE3CC" stroke-width="2"/>
<path d="M903.226 387.097H838.71V451.613H903.226V387.097Z" stroke="#9FE3CC" stroke-width="2"/>
<path d="M967.742 387.097H903.226V451.613H967.742V387.097Z" fill="#9FE3CC" fill-opacity="0.145098" stroke="#9FE3CC" stroke-width="2"/>
<path d="M1032.26 387.097H967.742V451.613H1032.26V387.097Z" stroke="#9FE3CC" stroke-width="2"/>
<path d="M1096.77 387.097H1032.26V451.613H1096.77V387.097Z" stroke="#9FE3CC" stroke-width="2"/>
<path d="M1161.29 387.097H1096.77V451.613H1161.29V387.097Z" stroke="#9FE3CC" stroke-width="2"/>
<path d="M1225.81 387.097H1161.29V451.613H1225.81V387.097Z" fill="#9FE3CC" fill-opacity="0.01" stroke="#9FE3CC" stroke-width="2"/>
<path d="M1290.32 387.097H1225.81V451.613H1290.32V387.097Z" stroke="#9FE3CC" stroke-width="2"/>
<path d="M1354.84 387.097H1290.32V451.613H1354.84V387.097Z" stroke="#9FE3CC" stroke-width="2"/>
<path d="M1419.35 387.097H1354.84V451.613H1419.35V387.097Z" fill="#9FE3CC" fill-opacity="0.160784" stroke="#9FE3CC" stroke-width="2"/>
<path d="M1483.87 387.097H1419.35V451.613H1483.87V387.097Z" fill="#9FE3CC" fill-opacity="0.407843" stroke="#9FE3CC" stroke-width="2"/>
<path d="M1548.39 387.097H1483.87V451.613H1548.39V387.097Z" fill="#9FE3CC" fill-opacity="0.698039" stroke="#9FE3CC" stroke-width="2"/>
<path d="M1612.9 387.097H1548.39V451.613H1612.9V387.097Z" stroke="#9FE3CC" stroke-width="2"/>
<path d="M1677.42 387.097H1612.9V451.613H1677.42V387.097Z" stroke="#9FE3CC" stroke-width="2"/>
<path d="M1741.94 387.097H1677.42V451.613H1741.94V387.097Z" stroke="#9FE3CC" stroke-width="2"/>
<path d="M1806.45 387.097H1741.94V451.613H1806.45V387.097Z" stroke="#9FE3CC" stroke-width="2"/>
<path d="M1870.97 387.097H1806.45V451.613H1870.97V387.097Z" fill="#9FE3CC" fill-opacity="0.14902" stroke="#9FE3CC" stroke-width="2"/>
<path d="M1935.48 387.097H1870.97V451.613H1935.48V387.097Z" fill="#9FE3CC" fill-opacity="0.901961" stroke="#9FE3CC" stroke-width="2"/>
<path d="M2000 387.097H1935.48V451.613H2000V387.097Z" stroke="#9FE3CC" stroke-width="2"/>
<path d="M516.129 451.613H451.613V516.129H516.129V451.613Z" stroke="#9FE3CC" stroke-width="2"/>
<path d="M580.645 451.613H516.129V516.129H580.645V451.613Z" fill="#9FE3CC" fill-opacity="0.0431373" stroke="#9FE3CC" stroke-width="2"/>
<path d="M645.162 451.613H580.646V516.129H645.162V451.613Z" stroke="#9FE3CC" stroke-width="2"/>
<path d="M709.677 451.613H645.161V516.129H709.677V451.613Z" stroke="#9FE3CC" stroke-width="2"/>
<path d="M774.194 451.613H709.678V516.129H774.194V451.613Z" stroke="#9FE3CC" stroke-width="2"/>
<path d="M838.709 451.613H774.193V516.129H838.709V451.613Z" fill="#9FE3CC" fill-opacity="0.301961" stroke="#9FE3CC" stroke-width="2"/>
<path d="M903.226 451.613H838.71V516.129H903.226V451.613Z" fill="#9FE3CC" fill-opacity="0.45098" stroke="#9FE3CC" stroke-width="2"/>
<path d="M967.742 451.613H903.226V516.129H967.742V451.613Z" stroke="#9FE3CC" stroke-width="2"/>
<path d="M1032.26 451.613H967.742V516.129H1032.26V451.613Z" stroke="#9FE3CC" stroke-width="2"/>
<path d="M1096.77 451.613H1032.26V516.129H1096.77V451.613Z" stroke="#9FE3CC" stroke-width="2"/>
<path d="M1161.29 451.613H1096.77V516.129H1161.29V451.613Z" fill="#9FE3CC" fill-opacity="0.792157" stroke="#9FE3CC" stroke-width="2"/>
<path d="M1225.81 451.613H1161.29V516.129H1225.81V451.613Z" fill="#9FE3CC" fill-opacity="0.054902" stroke="#9FE3CC" stroke-width="2"/>
<path d="M1290.32 451.613H1225.81V516.129H1290.32V451.613Z" stroke="#9FE3CC" stroke-width="2"/>
<path d="M1354.84 451.613H1290.32V516.129H1354.84V451.613Z" fill="#9FE3CC" fill-opacity="0.431373" stroke="#9FE3CC" stroke-width="2"/>
<path d="M1419.35 451.613H1354.84V516.129H1419.35V451.613Z" stroke="#9FE3CC" stroke-width="2"/>
<path d="M1483.87 451.613H1419.35V516.129H1483.87V451.613Z" stroke="#9FE3CC" stroke-width="2"/>
<path d="M1548.39 451.613H1483.87V516.129H1548.39V451.613Z" stroke="#9FE3CC" stroke-width="2"/>
<path d="M1612.9 451.613H1548.39V516.129H1612.9V451.613Z" fill="#9FE3CC" fill-opacity="0.839216" stroke="#9FE3CC" stroke-width="2"/>
<path d="M1677.42 451.613H1612.9V516.129H1677.42V451.613Z" stroke="#9FE3CC" stroke-width="2"/>
<path d="M1741.94 451.613H1677.42V516.129H1741.94V451.613Z" fill="#9FE3CC" fill-opacity="0.0196078" stroke="#9FE3CC" stroke-width="2"/>
<path d="M1806.45 451.613H1741.94V516.129H1806.45V451.613Z" fill="#9FE3CC" fill-opacity="0.968627" stroke="#9FE3CC" stroke-width="2"/>
<path d="M1870.97 451.613H1806.45V516.129H1870.97V451.613Z" stroke="#9FE3CC" stroke-width="2"/>
<path d="M1935.48 451.613H1870.97V516.129H1935.48V451.613Z" fill="#9FE3CC" fill-opacity="0.317647" stroke="#9FE3CC" stroke-width="2"/>
<path d="M2000 451.613H1935.48V516.129H2000V451.613Z" stroke="#9FE3CC" stroke-width="2"/>
<path d="M516.129 516.129H451.613V580.645H516.129V516.129Z" stroke="#9FE3CC" stroke-width="2"/>
<path d="M580.645 516.129H516.129V580.645H580.645V516.129Z" stroke="#9FE3CC" stroke-width="2"/>
<path d="M645.162 516.129H580.646V580.645H645.162V516.129Z" fill="#9FE3CC" fill-opacity="0.0823529" stroke="#9FE3CC" stroke-width="2"/>
<path d="M709.677 516.129H645.161V580.645H709.677V516.129Z" stroke="#9FE3CC" stroke-width="2"/>
<path d="M774.194 516.129H709.678V580.645H774.194V516.129Z" stroke="#9FE3CC" stroke-width="2"/>
<path d="M838.709 516.129H774.193V580.645H838.709V516.129Z" fill="#9FE3CC" fill-opacity="0.662745" stroke="#9FE3CC" stroke-width="2"/>
<path d="M903.226 516.129H838.71V580.645H903.226V516.129Z" fill="#9FE3CC" fill-opacity="0.0901961" stroke="#9FE3CC" stroke-width="2"/>
<path d="M967.742 516.129H903.226V580.645H967.742V516.129Z" stroke="#9FE3CC" stroke-width="2"/>
<path d="M1032.26 516.129H967.742V580.645H1032.26V516.129Z" stroke="#9FE3CC" stroke-width="2"/>
<path d="M1096.77 516.129H1032.26V580.645H1096.77V516.129Z" stroke="#9FE3CC" stroke-width="2"/>
<path d="M1161.29 516.129H1096.77V580.645H1161.29V516.129Z" stroke="#9FE3CC" stroke-width="2"/>
<path d="M1225.81 516.129H1161.29V580.645H1225.81V516.129Z" stroke="#9FE3CC" stroke-width="2"/>
<path d="M1290.32 516.129H1225.81V580.645H1290.32V516.129Z" stroke="#9FE3CC" stroke-width="2"/>
<path d="M1354.84 516.129H1290.32V580.645H1354.84V516.129Z" fill="#9FE3CC" fill-opacity="0.278431" stroke="#9FE3CC" stroke-width="2"/>
<path d="M1419.35 516.129H1354.84V580.645H1419.35V516.129Z" fill="#9FE3CC" fill-opacity="0.454902" stroke="#9FE3CC" stroke-width="2"/>
<path d="M1483.87 516.129H1419.35V580.645H1483.87V516.129Z" stroke="#9FE3CC" stroke-width="2"/>
<path d="M1548.39 516.129H1483.87V580.645H1548.39V516.129Z" fill="#9FE3CC" fill-opacity="0.0470588" stroke="#9FE3CC" stroke-width="2"/>
<path d="M1612.9 516.129H1548.39V580.645H1612.9V516.129Z" stroke="#9FE3CC" stroke-width="2"/>
<path d="M1677.42 516.129H1612.9V580.645H1677.42V516.129Z" stroke="#9FE3CC" stroke-width="2"/>
<path d="M1741.94 516.129H1677.42V580.645H1741.94V516.129Z" stroke="#9FE3CC" stroke-width="2"/>
<path d="M1806.45 516.129H1741.94V580.645H1806.45V516.129Z" fill="#9FE3CC" fill-opacity="0.0313726" stroke="#9FE3CC" stroke-width="2"/>
<path d="M1870.97 516.129H1806.45V580.645H1870.97V516.129Z" stroke="#9FE3CC" stroke-width="2"/>
<path d="M1935.48 516.129H1870.97V580.645H1935.48V516.129Z" stroke="#9FE3CC" stroke-width="2"/>
<path d="M2000 516.129H1935.48V580.645H2000V516.129Z" stroke="#9FE3CC" stroke-width="2"/>
<path d="M516.129 580.646H451.613V645.162H516.129V580.646Z" stroke="#9FE3CC" stroke-width="2"/>
<path d="M580.645 580.646H516.129V645.162H580.645V580.646Z" fill="#9FE3CC" fill-opacity="0.164706" stroke="#9FE3CC" stroke-width="2"/>
<path d="M645.162 580.646H580.646V645.162H645.162V580.646Z" fill="#9FE3CC" fill-opacity="0.517647" stroke="#9FE3CC" stroke-width="2"/>
<path d="M709.677 580.646H645.161V645.162H709.677V580.646Z" stroke="#9FE3CC" stroke-width="2"/>
<path d="M774.194 580.646H709.678V645.162H774.194V580.646Z" fill="#9FE3CC" fill-opacity="0.639216" stroke="#9FE3CC" stroke-width="2"/>
<path d="M838.709 580.646H774.193V645.162H838.709V580.646Z" stroke="#9FE3CC" stroke-width="2"/>
<path d="M903.226 580.646H838.71V645.162H903.226V580.646Z" stroke="#9FE3CC" stroke-width="2"/>
<path d="M967.742 580.646H903.226V645.162H967.742V580.646Z" stroke="#9FE3CC" stroke-width="2"/>
<path d="M1032.26 580.646H967.742V645.162H1032.26V580.646Z" fill="#9FE3CC" fill-opacity="0.721569" stroke="#9FE3CC" stroke-width="2"/>
<path d="M1096.77 580.646H1032.26V645.162H1096.77V580.646Z" stroke="#9FE3CC" stroke-width="2"/>
<path d="M1161.29 580.646H1096.77V645.162H1161.29V580.646Z" stroke="#9FE3CC" stroke-width="2"/>
<path d="M1225.81 580.646H1161.29V645.162H1225.81V580.646Z" stroke="#9FE3CC" stroke-width="2"/>
<path d="M1290.32 580.646H1225.81V645.162H1290.32V580.646Z" fill="#9FE3CC" fill-opacity="0.717647" stroke="#9FE3CC" stroke-width="2"/>
<path d="M1354.84 580.646H1290.32V645.162H1354.84V580.646Z" stroke="#9FE3CC" stroke-width="2"/>
<path d="M1419.35 580.646H1354.84V645.162H1419.35V580.646Z" stroke="#9FE3CC" stroke-width="2"/>
<path d="M1483.87 580.646H1419.35V645.162H1483.87V580.646Z" stroke="#9FE3CC" stroke-width="2"/>
<path d="M1548.39 580.646H1483.87V645.162H1548.39V580.646Z" stroke="#9FE3CC" stroke-width="2"/>
<path d="M1612.9 580.646H1548.39V645.162H1612.9V580.646Z" fill="#9FE3CC" fill-opacity="0.772549" stroke="#9FE3CC" stroke-width="2"/>
<path d="M1677.42 580.646H1612.9V645.162H1677.42V580.646Z" stroke="#9FE3CC" stroke-width="2"/>
<path d="M1741.94 580.646H1677.42V645.162H1741.94V580.646Z" stroke="#9FE3CC" stroke-width="2"/>
<path d="M1806.45 580.646H1741.94V645.162H1806.45V580.646Z" stroke="#9FE3CC" stroke-width="2"/>
<path d="M1870.97 580.646H1806.45V645.162H1870.97V580.646Z" fill="#9FE3CC" fill-opacity="0.45098" stroke="#9FE3CC" stroke-width="2"/>
<path d="M1935.48 580.646H1870.97V645.162H1935.48V580.646Z" stroke="#9FE3CC" stroke-width="2"/>
<path d="M2000 580.646H1935.48V645.162H2000V580.646Z" stroke="#9FE3CC" stroke-width="2"/>
<path d="M516.129 645.161H451.613V709.677H516.129V645.161Z" stroke="#9FE3CC" stroke-width="2"/>
<path d="M580.645 645.161H516.129V709.677H580.645V645.161Z" fill="#9FE3CC" fill-opacity="0.6" stroke="#9FE3CC" stroke-width="2"/>
<path d="M645.162 645.161H580.646V709.677H645.162V645.161Z" fill="#9FE3CC" fill-opacity="0.890196" stroke="#9FE3CC" stroke-width="2"/>
<path d="M709.677 645.161H645.161V709.677H709.677V645.161Z" stroke="#9FE3CC" stroke-width="2"/>
<path d="M774.194 645.161H709.678V709.677H774.194V645.161Z" stroke="#9FE3CC" stroke-width="2"/>
<path d="M838.709 645.161H774.193V709.677H838.709V645.161Z" fill="#9FE3CC" fill-opacity="0.129412" stroke="#9FE3CC" stroke-width="2"/>
<path d="M903.226 645.161H838.71V709.677H903.226V645.161Z" stroke="#9FE3CC" stroke-width="2"/>
<path d="M967.742 645.161H903.226V709.677H967.742V645.161Z" stroke="#9FE3CC" stroke-width="2"/>
<path d="M1032.26 645.161H967.742V709.677H1032.26V645.161Z" stroke="#9FE3CC" stroke-width="2"/>
<path d="M1096.77 645.161H1032.26V709.677H1096.77V645.161Z" stroke="#9FE3CC" stroke-width="2"/>
<path d="M1161.29 645.161H1096.77V709.677H1161.29V645.161Z" stroke="#9FE3CC" stroke-width="2"/>
<path d="M1225.81 645.161H1161.29V709.677H1225.81V645.161Z" stroke="#9FE3CC" stroke-width="2"/>
<path d="M1290.32 645.161H1225.81V709.677H1290.32V645.161Z" fill="#9FE3CC" fill-opacity="0.560784" stroke="#9FE3CC" stroke-width="2"/>
<path d="M1354.84 645.161H1290.32V709.677H1354.84V645.161Z" stroke="#9FE3CC" stroke-width="2"/>
<path d="M1419.35 645.161H1354.84V709.677H1419.35V645.161Z" stroke="#9FE3CC" stroke-width="2"/>
<path d="M1483.87 645.161H1419.35V709.677H1483.87V645.161Z" stroke="#9FE3CC" stroke-width="2"/>
<path d="M1548.39 645.161H1483.87V709.677H1548.39V645.161Z" stroke="#9FE3CC" stroke-width="2"/>
<path d="M1612.9 645.161H1548.39V709.677H1612.9V645.161Z" stroke="#9FE3CC" stroke-width="2"/>
<path d="M1677.42 645.161H1612.9V709.677H1677.42V645.161Z" fill="#9FE3CC" fill-opacity="0.929412" stroke="#9FE3CC" stroke-width="2"/>
<path d="M1741.94 645.161H1677.42V709.677H1741.94V645.161Z" fill="#9FE3CC" fill-opacity="0.717647" stroke="#9FE3CC" stroke-width="2"/>
<path d="M1806.45 645.161H1741.94V709.677H1806.45V645.161Z" stroke="#9FE3CC" stroke-width="2"/>
<path d="M1870.97 645.161H1806.45V709.677H1870.97V645.161Z" fill="#9FE3CC" fill-opacity="0.380392" stroke="#9FE3CC" stroke-width="2"/>
<path d="M1935.48 645.161H1870.97V709.677H1935.48V645.161Z" stroke="#9FE3CC" stroke-width="2"/>
<path d="M2000 645.161H1935.48V709.677H2000V645.161Z" stroke="#9FE3CC" stroke-width="2"/>
<path d="M516.129 709.678H451.613V774.194H516.129V709.678Z" fill="#9FE3CC" fill-opacity="0.541176" stroke="#9FE3CC" stroke-width="2"/>
<path d="M580.645 709.678H516.129V774.194H580.645V709.678Z" fill="#9FE3CC" fill-opacity="0.811765" stroke="#9FE3CC" stroke-width="2"/>
<path d="M645.162 709.678H580.646V774.194H645.162V709.678Z" stroke="#9FE3CC" stroke-width="2"/>
<path d="M709.677 709.678H645.161V774.194H709.677V709.678Z" fill="#9FE3CC" fill-opacity="0.215686" stroke="#9FE3CC" stroke-width="2"/>
<path d="M774.194 709.678H709.678V774.194H774.194V709.678Z" stroke="#9FE3CC" stroke-width="2"/>
<path d="M838.709 709.678H774.193V774.194H838.709V709.678Z" fill="#9FE3CC" fill-opacity="0.898039" stroke="#9FE3CC" stroke-width="2"/>
<path d="M903.226 709.678H838.71V774.194H903.226V709.678Z" stroke="#9FE3CC" stroke-width="2"/>
<path d="M967.742 709.678H903.226V774.194H967.742V709.678Z" stroke="#9FE3CC" stroke-width="2"/>
<path d="M1032.26 709.678H967.742V774.194H1032.26V709.678Z" stroke="#9FE3CC" stroke-width="2"/>
<path d="M1096.77 709.678H1032.26V774.194H1096.77V709.678Z" fill="#9FE3CC" fill-opacity="0.168627" stroke="#9FE3CC" stroke-width="2"/>
<path d="M1161.29 709.678H1096.77V774.194H1161.29V709.678Z" fill="#9FE3CC" fill-opacity="0.470588" stroke="#9FE3CC" stroke-width="2"/>
<path d="M1225.81 709.678H1161.29V774.194H1225.81V709.678Z" fill="#9FE3CC" fill-opacity="0.690196" stroke="#9FE3CC" stroke-width="2"/>
<path d="M1290.32 709.678H1225.81V774.194H1290.32V709.678Z" stroke="#9FE3CC" stroke-width="2"/>
<path d="M1354.84 709.678H1290.32V774.194H1354.84V709.678Z" stroke="#9FE3CC" stroke-width="2"/>
<path d="M1419.35 709.678H1354.84V774.194H1419.35V709.678Z" stroke="#9FE3CC" stroke-width="2"/>
<path d="M1483.87 709.678H1419.35V774.194H1483.87V709.678Z" stroke="#9FE3CC" stroke-width="2"/>
<path d="M1548.39 709.678H1483.87V774.194H1548.39V709.678Z" stroke="#9FE3CC" stroke-width="2"/>
<path d="M1612.9 709.678H1548.39V774.194H1612.9V709.678Z" fill="#9FE3CC" fill-opacity="0.831373" stroke="#9FE3CC" stroke-width="2"/>
<path d="M1677.42 709.678H1612.9V774.194H1677.42V709.678Z" fill="#9FE3CC" fill-opacity="0.164706" stroke="#9FE3CC" stroke-width="2"/>
<path d="M1741.94 709.678H1677.42V774.194H1741.94V709.678Z" stroke="#9FE3CC" stroke-width="2"/>
<path d="M1806.45 709.678H1741.94V774.194H1806.45V709.678Z" stroke="#9FE3CC" stroke-width="2"/>
<path d="M1870.97 709.678H1806.45V774.194H1870.97V709.678Z" stroke="#9FE3CC" stroke-width="2"/>
<path d="M1935.48 709.678H1870.97V774.194H1935.48V709.678Z" stroke="#9FE3CC" stroke-width="2"/>
<path d="M2000 709.678H1935.48V774.194H2000V709.678Z" stroke="#9FE3CC" stroke-width="2"/>
</g>
</g>
<defs>
<radialGradient id="paint0_radial_131_2" cx="0" cy="0" r="1" gradientUnits="userSpaceOnUse" gradientTransform="translate(1488.2 66.8223) scale(1000 700)">
<stop stop-color="white" stop-opacity="0.712"/>
<stop offset="0.76" stop-color="white" stop-opacity="0"/>
</radialGradient>
<clipPath id="clip0_131_2">
<rect width="2000" height="1400" fill="white"/>
</clipPath>
</defs>
</svg>
